<svg width="29" height="29" viewBox="0 0 29 29" fill="none" xmlns="http://www.w3.org/2000/svg">
<rect x="0.5" y="0.5" width="28" height="28" fill="black" stroke="white"/>
<path d="M9.76807 16.2354H8.37646V20H5.80566V9.33594H10.0024C11.2671 9.33594 12.2559 9.6167 12.9688 10.1782C13.6816 10.7397 14.0381 11.5332 14.0381 12.5586C14.0381 13.3008 13.8867 13.916 13.584 14.4043C13.2861 14.8926 12.8174 15.2881 12.1777 15.5908L14.4043 19.8901V20H11.6504L9.76807 16.2354ZM8.37646 14.2505H10.0024C10.4907 14.2505 10.8569 14.1235 11.1011 13.8696C11.3501 13.6108 11.4746 13.252 11.4746 12.793C11.4746 12.334 11.3501 11.9751 11.1011 11.7163C10.8521 11.4526 10.4858 11.3208 10.0024 11.3208H8.37646V14.2505ZM23.9551 9.33594V16.3159C23.9551 17.1069 23.7866 17.793 23.4497 18.374C23.1128 18.9502 22.6294 19.3896 21.9995 19.6924C21.3696 19.9951 20.625 20.1465 19.7656 20.1465C18.4668 20.1465 17.4438 19.8096 16.6968 19.1357C15.9497 18.4619 15.5688 17.5391 15.5542 16.3672V9.33594H18.1396V16.4185C18.1689 17.5854 18.7109 18.1689 19.7656 18.1689C20.2979 18.1689 20.7007 18.0225 20.9741 17.7295C21.2476 17.4365 21.3843 16.9604 21.3843 16.3013V9.33594H23.9551Z" fill="white"/>
</svg>
