<svg width="29" height="29" viewBox="0 0 29 29" fill="none" xmlns="http://www.w3.org/2000/svg">
<rect x="0.5" y="0.5" width="28" height="28" fill="black" stroke="white"/>
<path d="M14.1699 9.33594V16.3159C14.1699 17.1069 14.0015 17.793 13.6646 18.374C13.3276 18.9502 12.8442 19.3896 12.2144 19.6924C11.5845 19.9951 10.8398 20.1465 9.98047 20.1465C8.68164 20.1465 7.65869 19.8096 6.91162 19.1357C6.16455 18.4619 5.78369 17.5391 5.76904 16.3672V9.33594H8.35449V16.4185C8.38379 17.5854 8.92578 18.1689 9.98047 18.1689C10.5127 18.1689 10.9155 18.0225 11.189 17.7295C11.4624 17.4365 11.5991 16.9604 11.5991 16.3013V9.33594H14.1699ZM19.4067 16.0303L18.3521 17.1875V20H15.7812V9.33594H18.3521V14.0381L19.2456 12.6831L21.5454 9.33594H24.7241L21.1206 14.0527L24.7241 20H21.6772L19.4067 16.0303Z" fill="white"/>
</svg>
